# xmcd
#
# Track frame offsets: 
#        150
#        12087
#        23212
#        34429
#        45250
#        56781
#        67545
#        78686
#        88405
#        98765
#        110032
#        120394
#        131407
#        141757
#        151436
#        161357
#
# Disc length: 2275 seconds
#
# Revision: 0
# Processed by: cddbd v1.5.2PL0 Copyright (c) Steve Scherf et al.
# Submitted via: ExactAudioCopyFreeDBPlugin 1.0
#
DISCID=cb08e110
DTITLE=Buck Owens - Four Classic Albums CD-2
DYEAR=1900
DGENRE=Country
TTITLE0=Foolin' Around
TTITLE1=Heartaches For A Dime
TTITLE2=Heartaches By The Number
TTITLE3=Let's Agree To Disagree
TTITLE4=The Keeper Of The Key
TTITLE5=I Don't Believe I'll Fall In Love Today
TTITLE6=Pick Me Up On Your Way Down
TTITLE7=I'll Catch You When You Fall
TTITLE8=Lyin' Again
TTITLE9=The One You Slip Around With
TTITLE10=Think It Over
TTITLE11=The Key's In The Mailbox
TTITLE12=Come Back
TTITLE13=I Know What It Means
TTITLE14=Sweet Thing
TTITLE15=I Only Know That I Love You
EXTD=
EXTT0=
EXTT1=
EXTT2=
EXTT3=
EXTT4=
EXTT5=
EXTT6=
EXTT7=
EXTT8=
EXTT9=
EXTT10=
EXTT11=
EXTT12=
EXTT13=
EXTT14=
EXTT15=
PLAYORDER=
